<svg xmlns="http://www.w3.org/2000/svg" viewBox="0 0 1024 1024" width="1024" height="1024">
<defs>
  <linearGradient id="bg" gradientUnits="userSpaceOnUse" x1="100" y1="100" x2="924" y2="924">
    <stop offset="0" stop-color="#7C3AED"/><stop offset="1" stop-color="#312E81"/>
  </linearGradient>
  <linearGradient id="gloss" gradientUnits="userSpaceOnUse" x1="0" y1="100" x2="0" y2="924">
    <stop offset="0" stop-color="#fff" stop-opacity=".16"/><stop offset=".5" stop-color="#fff" stop-opacity="0"/>
  </linearGradient>
  <clipPath id="sq"><rect x="100" y="100" width="824" height="824" rx="185"/></clipPath>
  <filter id="sh" x="-20%" y="-20%" width="140%" height="140%"><feDropShadow dx="0" dy="14" stdDeviation="16" flood-color="#000" flood-opacity=".28"/></filter>
  
</defs>
<rect x="100" y="100" width="824" height="824" rx="185" fill="url(#bg)"/>
<g clip-path="url(#sq)">

<path filter="url(#sh)" fill="#fff" d="M276 292 H748 a44 44 0 0 1 44 44 V364 a44 44 0 0 1 -44 44 H570 V700 a44 44 0 0 1 -44 44 H498 a44 44 0 0 1 -44 -44 V408 H276 a44 44 0 0 1 -44 -44 V336 a44 44 0 0 1 44 -44 Z"/>
<circle cx="644" cy="350" r="24" fill="url(#bg)"/>
<circle cx="722" cy="350" r="24" fill="url(#bg)"/>
<circle cx="380" cy="350" r="24" fill="url(#bg)" fill-opacity=".4"/>
<circle cx="302" cy="350" r="24" fill="url(#bg)" fill-opacity=".4"/>

</g>
<rect x="100" y="100" width="824" height="824" rx="185" fill="url(#gloss)"/>
</svg>